<?xml version="1.0" encoding="UTF-8" standalone="no"?>
<svg
   xmlns:dc="http://purl.org/dc/elements/1.1/"
   xmlns:cc="http://creativecommons.org/ns#"
   xmlns:rdf="http://www.w3.org/1999/02/22-rdf-syntax-ns#"
   xmlns:svg="http://www.w3.org/2000/svg"
   xmlns="http://www.w3.org/2000/svg"
   xmlns:sodipodi="http://sodipodi.sourceforge.net/DTD/sodipodi-0.dtd"
   xmlns:inkscape="http://www.inkscape.org/namespaces/inkscape"
   height="16"
   viewBox="0 0 16 16"
   width="16"
   version="1.1"
   id="svg12"
   sodipodi:docname="icon.svg"
   inkscape:version="1.0 (4035a4fb49, 2020-05-01)">
  <metadata
     id="metadata18">
    <rdf:RDF>
      <cc:Work
         rdf:about="">
        <dc:format>image/svg+xml</dc:format>
        <dc:type
           rdf:resource="http://purl.org/dc/dcmitype/StillImage" />
        <dc:title />
      </cc:Work>
    </rdf:RDF>
  </metadata>
  <defs
     id="defs16" />
  <sodipodi:namedview
     inkscape:snap-grids="true"
     inkscape:document-rotation="0"
     pagecolor="#ffffff"
     bordercolor="#666666"
     borderopacity="1"
     objecttolerance="10"
     gridtolerance="10"
     guidetolerance="10"
     inkscape:pageopacity="0"
     inkscape:pageshadow="2"
     inkscape:window-width="2487"
     inkscape:window-height="1233"
     id="namedview14"
     showgrid="true"
     inkscape:zoom="45.254834"
     inkscape:cx="6.3435828"
     inkscape:cy="10.873517"
     inkscape:window-x="0"
     inkscape:window-y="0"
     inkscape:window-maximized="0"
     inkscape:current-layer="svg12">
    <inkscape:grid
       type="xygrid"
       id="grid840" />
  </sodipodi:namedview>
  <path
     d="M 15.360854,7.994369 A 7.3781743,7.3790278 0 0 1 7.9826798,15.373397 7.3781743,7.3790278 0 0 1 0.60450554,7.994369 7.3781743,7.3790278 0 0 1 7.9826798,0.61534119 7.3781743,7.3790278 0 0 1 15.360854,7.994369"
     style="fill:none;fill-opacity:0.99608;stroke:#fc9c9c;stroke-width:0.566929;stroke-miterlimit:4;stroke-dasharray:none;stroke-opacity:0.996078;image-rendering:auto"
     id="path842" />
  <path
     d="M 13.546207,7.9546289 A 5.530683,5.5200791 0 0 1 8.0155239,13.474708 5.530683,5.5200791 0 0 1 2.4848409,7.9546289 5.530683,5.5200791 0 0 1 8.0155239,2.4345498 5.530683,5.5200791 0 0 1 13.546207,7.9546289"
     transform="matrix(0.99998458,0.00555395,0,1,0,0)"
     style="fill:none;fill-opacity:0.99608;stroke:#fc9c9c;stroke-width:0.566934;stroke-miterlimit:4;stroke-dasharray:none;stroke-opacity:0.996078"
     id="path842-9" />
  <path
     d="M 4.087961,2.767767 A 1.4915533,1.3864853 0 0 1 2.5964077,4.1542523 1.4915533,1.3864853 0 0 1 1.1048543,2.767767 1.4915533,1.3864853 0 0 1 2.5964077,1.3812816 1.4915533,1.3864853 0 0 1 4.087961,2.767767"
     style="fill:#fc9c9c;fill-opacity:0.99608;stroke:none;stroke-width:1.18669;stroke-opacity:0.996078"
     id="path882" />
  <path
     d="m 7.6733208,13.203008 a 1.0717087,1.0439805 0 0 1 -1.0717087,1.04398 1.0717087,1.0439805 0 0 1 -1.0717087,-1.04398 1.0717087,1.0439805 0 0 1 1.0717087,-1.043981 1.0717087,1.0439805 0 0 1 1.0717087,1.043981"
     style="fill:#fc9c9c;fill-opacity:0.99608;stroke:none;stroke-width:0.872859;stroke-opacity:0.996078"
     id="path882-0" />
  <path
     d="M 13.04833,1.9278642 A 0.86178637,0.82300961 0 0 1 12.186543,2.7508738 0.86178637,0.82300961 0 0 1 11.324757,1.9278642 0.86178637,0.82300961 0 0 1 12.186543,1.1048546 0.86178637,0.82300961 0 0 1 13.04833,1.9278642"
     style="fill:#fc9c9c;fill-opacity:0.99608;stroke:none;stroke-width:0.694963;stroke-opacity:0.996078"
     id="path882-0-7" />
  <path
     d="M 10.385632,8.070961 A 2.4693494,2.518961 0 0 1 7.9162827,10.589922 2.4693494,2.518961 0 0 1 5.4469333,8.070961 2.4693494,2.518961 0 0 1 7.9162827,5.552 2.4693494,2.518961 0 0 1 10.385632,8.070961"
     style="fill:#fc9c9c;fill-opacity:0.99608;stroke:none;stroke-width:2.05807;stroke-opacity:0.996078"
     id="path882-0-8" />
  <path
     d="m 14.307863,6.0160394 a 1.2153398,1.1876116 0 0 1 -1.215339,1.1876116 1.2153398,1.1876116 0 0 1 -1.21534,-1.1876116 1.2153398,1.1876116 0 0 1 1.21534,-1.1876116 1.2153398,1.1876116 0 0 1 1.215339,1.1876116"
     style="fill:#fc9c9c;fill-opacity:0.99608;stroke:none;stroke-width:0.991394;stroke-opacity:0.996078"
     id="path882-8" />
  <g
     style="font-style:normal;font-variant:normal;font-weight:normal;font-stretch:normal;font-size:2.13334px;line-height:1.25;font-family:'Segoe Script';-inkscape-font-specification:'Segoe Script';text-align:center;text-anchor:middle;fill:#000000;fill-opacity:1;stroke:none;stroke-width:0.04"
     id="text946"
     aria-label="N-body simulation">
    <path
       id="path847"
       style="font-style:normal;font-variant:normal;font-weight:bold;font-stretch:normal;font-size:2.13334px;font-family:Calibri;-inkscape-font-specification:'Calibri Bold';text-align:center;text-anchor:middle;stroke-width:0.04"
       d="m 6.0151478,9.62385 q 0,0.023958 -0.00833,0.042709 -0.00833,0.01875 -0.022917,0.03125 -0.013542,0.0125 -0.033333,0.01875 -0.01875,0.00521 -0.038542,0.00521 h -0.116667 q -0.036459,0 -0.063542,-0.00729 -0.026042,-0.00729 -0.048958,-0.026042 -0.021875,-0.019792 -0.042708,-0.052084 -0.020833,-0.033333 -0.046875,-0.085417 L 5.2578538,8.9207229 Q 5.2286871,8.8644727 5.1984786,8.7998892 5.1682702,8.734264 5.1443118,8.6728054 h -0.00208 q 0.00417,0.075 0.00625,0.1500005 0.00208,0.073959 0.00208,0.1531255 v 0.7052105 q 0,0.010417 -0.00625,0.01875 -0.00521,0.00833 -0.019792,0.014583 -0.013542,0.00521 -0.0375,0.00833 -0.023958,0.00313 -0.061458,0.00313 -0.036459,0 -0.060417,-0.00313 -0.023958,-0.00313 -0.0375,-0.00833 -0.013542,-0.00625 -0.01875,-0.014583 -0.00521,-0.00833 -0.00521,-0.01875 V 8.4696798 q 0,-0.048958 0.028125,-0.072917 0.029167,-0.025 0.070833,-0.025 h 0.1468755 q 0.039583,0 0.066667,0.00729 0.027084,0.00625 0.047917,0.021875 0.021875,0.015625 0.040625,0.04375 0.01875,0.027083 0.038542,0.067709 l 0.2625008,0.4927098 q 0.022917,0.044792 0.044792,0.088542 0.022917,0.042708 0.04375,0.086459 0.020833,0.042708 0.040625,0.084375 0.019792,0.041667 0.038542,0.083334 h 0.00104 q -0.00313,-0.072917 -0.00521,-0.1520838 -0.00104,-0.079167 -0.00104,-0.1510421 V 8.412388 q 0,-0.010417 0.00625,-0.01875 0.00625,-0.00833 0.020833,-0.014583 0.014583,-0.00625 0.038542,-0.00833 0.023958,-0.00313 0.061458,-0.00313 0.035417,0 0.059375,0.00313 0.023958,0.00208 0.036458,0.00833 0.013542,0.00625 0.01875,0.014583 0.00521,0.00833 0.00521,0.01875 z" />
    <path
       id="path849"
       style="font-style:normal;font-variant:normal;font-weight:bold;font-stretch:normal;font-size:2.13334px;font-family:Calibri;-inkscape-font-specification:'Calibri Bold';text-align:center;text-anchor:middle;stroke-width:0.04"
       d="m 6.7526501,9.1957237 q 0,0.060417 -0.011458,0.084375 -0.011458,0.023958 -0.036458,0.023958 H 6.2713986 q -0.026042,0 -0.0375,-0.023958 -0.011458,-0.025 -0.011458,-0.084375 0,-0.058333 0.011458,-0.082292 0.011458,-0.023958 0.0375,-0.023958 h 0.4333347 q 0.0125,0 0.020833,0.00521 0.00938,0.00521 0.015625,0.017708 0.00625,0.0125 0.00833,0.033333 0.00313,0.020833 0.00313,0.05 z" />
    <path
       id="path851"
       style="font-style:normal;font-variant:normal;font-weight:bold;font-stretch:normal;font-size:2.13334px;font-family:Calibri;-inkscape-font-specification:'Calibri Bold';text-align:center;text-anchor:middle;stroke-width:0.04"
       d="m 7.8818202,9.2071821 q 0,0.1239587 -0.027083,0.2229173 -0.027083,0.098959 -0.078125,0.1687505 -0.051042,0.069792 -0.126042,0.107292 -0.073959,0.0375 -0.1687506,0.0375 -0.046875,0 -0.0875,-0.00938 -0.040625,-0.00833 -0.078125,-0.028125 -0.036458,-0.019792 -0.072917,-0.05 -0.035417,-0.030208 -0.072917,-0.072917 v 0.101042 q 0,0.011458 -0.00625,0.019792 -0.00521,0.00729 -0.01875,0.0125 -0.0125,0.00521 -0.034375,0.00729 -0.021875,0.00208 -0.053125,0.00208 -0.032292,0 -0.054167,-0.00208 -0.020833,-0.00208 -0.034375,-0.00729 -0.0125,-0.00521 -0.017708,-0.0125 -0.00521,-0.00833 -0.00521,-0.019792 V 8.314471 q 0,-0.010417 0.00625,-0.01875 0.00625,-0.00833 0.020833,-0.013542 0.015625,-0.00625 0.040625,-0.00938 0.025,-0.00312 0.063542,-0.00312 0.038542,0 0.063542,0.00312 0.025,0.00313 0.039583,0.00938 0.015625,0.00521 0.021875,0.013542 0.00625,0.00833 0.00625,0.01875 v 0.5135432 q 0.035417,-0.035417 0.070834,-0.060417 0.035417,-0.025 0.070833,-0.040625 0.035417,-0.016667 0.072917,-0.023958 0.0375,-0.00729 0.079167,-0.00729 0.1031253,0 0.1750006,0.041667 0.071875,0.040625 0.116667,0.110417 0.045834,0.069792 0.066667,0.1635421 0.020833,0.092709 0.020833,0.195834 z m -0.2718759,0.01875 q 0,-0.059375 -0.00938,-0.1145837 -0.00833,-0.055209 -0.030208,-0.097917 -0.021875,-0.042708 -0.057292,-0.067709 -0.034375,-0.026042 -0.0875,-0.026042 -0.026042,0 -0.051042,0.00729 -0.025,0.00729 -0.052084,0.025 -0.026042,0.017708 -0.054167,0.045833 -0.028125,0.028125 -0.059375,0.069792 v 0.3083343 q 0.055208,0.070833 0.1052087,0.1083337 0.051042,0.036458 0.1062503,0.036458 0.051042,0 0.086459,-0.026042 0.035417,-0.026042 0.058333,-0.067709 0.023958,-0.041667 0.034375,-0.094792 0.010417,-0.053125 0.010417,-0.1062504 z" />
    <path
       id="path853"
       style="font-style:normal;font-variant:normal;font-weight:bold;font-stretch:normal;font-size:2.13334px;font-family:Calibri;-inkscape-font-specification:'Calibri Bold';text-align:center;text-anchor:middle;stroke-width:0.04"
       d="m 9.0318237,9.2103071 q 0,0.1187503 -0.03125,0.2166673 -0.03125,0.097917 -0.094792,0.1687505 -0.063542,0.070834 -0.1593755,0.1093754 -0.095834,0.038542 -0.223959,0.038542 -0.1239587,0 -0.2156257,-0.034375 Q 8.2151545,9.6748918 8.1547376,9.6092666 8.0943208,9.5436414 8.065154,9.4478078 8.0359873,9.3519742 8.0359873,9.2290571 q 0,-0.1187503 0.03125,-0.2166673 0.032292,-0.098959 0.095834,-0.1687505 0.063542,-0.070834 0.1583338,-0.1093753 0.095834,-0.038542 0.223959,-0.038542 0.1250004,0 0.2166674,0.034375 0.091667,0.033333 0.1510421,0.098959 0.060417,0.065625 0.089584,0.1614588 0.029167,0.095834 0.029167,0.2197924 z m -0.2697925,0.010417 q 0,-0.06875 -0.011458,-0.1260421 -0.010417,-0.058333 -0.036458,-0.1010419 -0.026042,-0.042708 -0.069792,-0.066667 -0.042708,-0.023958 -0.1083337,-0.023958 -0.058333,0 -0.1020836,0.021875 -0.04375,0.020833 -0.071875,0.0625 -0.028125,0.040625 -0.042708,0.098959 -0.013542,0.057292 -0.013542,0.1312504 0,0.06875 0.011458,0.1270837 0.011458,0.057292 0.036458,0.1000003 0.026042,0.042708 0.069792,0.066667 0.04375,0.022917 0.1083336,0.022917 0.059375,0 0.1031254,-0.020833 0.04375,-0.021875 0.071875,-0.0625 0.028125,-0.040625 0.041667,-0.097917 0.013542,-0.058334 0.013542,-0.1322921 z" />
    <path
       id="path855"
       style="font-style:normal;font-variant:normal;font-weight:bold;font-stretch:normal;font-size:2.13334px;font-family:Calibri;-inkscape-font-specification:'Calibri Bold';text-align:center;text-anchor:middle;stroke-width:0.04"
       d="m 10.119327,9.6842669 q 0,0.011458 -0.0052,0.019792 -0.0052,0.00729 -0.01771,0.0125 -0.0125,0.00521 -0.03438,0.00729 -0.02083,0.00208 -0.05208,0.00208 -0.033334,0 -0.054167,-0.00208 -0.020833,-0.00208 -0.034375,-0.00729 -0.0125,-0.00521 -0.01875,-0.0125 -0.00521,-0.00833 -0.00521,-0.019792 V 9.5811416 q -0.071875,0.077083 -0.1510421,0.119792 -0.078125,0.042708 -0.1739589,0.042708 -0.1062503,0 -0.1802089,-0.040625 -0.072917,-0.041667 -0.119792,-0.1114586 -0.045833,-0.069792 -0.066667,-0.1625005 -0.020833,-0.09375 -0.020833,-0.1968756 0,-0.1239588 0.026042,-0.2229174 0.027083,-0.098959 0.078125,-0.1687505 0.051042,-0.069792 0.1270837,-0.107292 0.076042,-0.0375 0.1750006,-0.0375 0.078125,0 0.1416671,0.032292 0.063542,0.03125 0.126042,0.092709 V 8.317596 q 0,-0.010417 0.00521,-0.01875 0.00625,-0.00833 0.020833,-0.013542 0.015625,-0.00625 0.040625,-0.00938 0.025,-0.00313 0.063542,-0.00313 0.038542,0 0.063542,0.00313 0.025,0.00312 0.03958,0.00938 0.01458,0.00521 0.02083,0.013542 0.0062,0.00833 0.0062,0.01875 z M 9.8589095,9.0634316 q -0.05625,-0.070833 -0.1083336,-0.1083336 -0.051042,-0.0375 -0.107292,-0.0375 -0.051042,0 -0.088542,0.026042 -0.036458,0.025 -0.059375,0.067709 -0.021875,0.042708 -0.033333,0.095834 -0.010417,0.052084 -0.010417,0.107292 0,0.058333 0.00938,0.113542 0.00938,0.055209 0.030209,0.098959 0.021875,0.042708 0.057292,0.06875 0.035417,0.026042 0.089584,0.026042 0.027083,0 0.052084,-0.00729 0.026042,-0.00833 0.052084,-0.026042 0.027083,-0.017708 0.055209,-0.045833 0.028125,-0.029167 0.061458,-0.070834 z" />
    <path
       id="path857"
       style="font-style:normal;font-variant:normal;font-weight:bold;font-stretch:normal;font-size:2.13334px;font-family:Calibri;-inkscape-font-specification:'Calibri Bold';text-align:center;text-anchor:middle;stroke-width:0.04"
       d="m 10.922454,9.7196836 -0.1125,0.3291674 q -0.0094,0.02604 -0.05104,0.0375 -0.04167,0.01146 -0.121875,0.01146 -0.04167,0 -0.06667,-0.0042 -0.025,-0.0031 -0.0375,-0.01146 -0.0125,-0.0083 -0.01354,-0.02083 -0.001,-0.0125 0.0062,-0.03021 l 0.123959,-0.3114594 q -0.01354,-0.00625 -0.025,-0.01875 -0.01042,-0.013542 -0.01563,-0.028125 L 10.289119,8.8186392 q -0.01354,-0.036458 -0.01354,-0.055208 0,-0.019792 0.0125,-0.030208 0.0125,-0.011458 0.04167,-0.015625 0.03021,-0.00417 0.07917,-0.00417 0.04479,0 0.07083,0.00208 0.02604,0.00104 0.04063,0.00729 0.01458,0.00625 0.02187,0.019792 0.0073,0.0125 0.01458,0.036459 l 0.218751,0.6218769 h 0.0031 l 0.200001,-0.634377 q 0.0062,-0.027083 0.01563,-0.035417 0.01042,-0.00938 0.03333,-0.013542 0.02292,-0.00417 0.08021,-0.00417 0.04479,0 0.07396,0.00417 0.03021,0.00417 0.04375,0.015625 0.01458,0.011458 0.01458,0.03125 0,0.01875 -0.0083,0.044792 z" />
    <path
       id="path859"
       style="font-style:normal;font-variant:normal;font-weight:bold;font-stretch:normal;font-size:2.13334px;font-family:Calibri;-inkscape-font-specification:'Calibri Bold';text-align:center;text-anchor:middle;stroke-width:0.04"
       d="m 4.1172253,12.100058 q 0,0.07917 -0.030208,0.139584 -0.029167,0.06042 -0.083334,0.101042 -0.054167,0.04063 -0.1281254,0.06042 -0.073958,0.02083 -0.1604171,0.02083 -0.052083,0 -0.1000003,-0.0083 -0.046875,-0.0073 -0.084375,-0.01875 -0.0375,-0.0125 -0.0625,-0.025 -0.025,-0.0125 -0.036458,-0.02292 -0.011458,-0.01146 -0.017708,-0.03437 -0.00625,-0.02396 -0.00625,-0.06979 0,-0.03021 0.00208,-0.04792 0.00208,-0.01875 0.00625,-0.02917 0.00417,-0.01146 0.010417,-0.01458 0.00625,-0.0042 0.015625,-0.0042 0.011458,0 0.033333,0.01354 0.022917,0.0125 0.05625,0.02812 0.033333,0.01563 0.077084,0.02917 0.044792,0.01354 0.101042,0.01354 0.035417,0 0.0625,-0.0073 0.028125,-0.0073 0.047917,-0.02083 0.020833,-0.01354 0.03125,-0.03437 0.010417,-0.02083 0.010417,-0.04792 0,-0.03125 -0.019792,-0.05313 -0.01875,-0.02292 -0.051042,-0.03958 -0.03125,-0.01667 -0.071875,-0.03125 -0.039583,-0.01458 -0.082292,-0.03229 -0.041667,-0.01771 -0.082292,-0.04063 -0.039583,-0.02292 -0.071875,-0.05625 -0.03125,-0.03333 -0.051042,-0.08021 -0.01875,-0.04687 -0.01875,-0.1125 0,-0.06667 0.026042,-0.121876 0.026042,-0.05625 0.075,-0.09583 0.048959,-0.03958 0.1187503,-0.06146 0.070834,-0.02187 0.1583339,-0.02187 0.04375,0 0.084375,0.0062 0.041667,0.0062 0.075,0.01563 0.033333,0.0094 0.05625,0.02083 0.022917,0.01042 0.032292,0.01875 0.010417,0.0073 0.014583,0.01563 0.00417,0.0073 0.00625,0.01875 0.00208,0.01042 0.00313,0.02708 0.00208,0.01563 0.00208,0.03958 0,0.02813 -0.00208,0.04583 -0.00104,0.01771 -0.00521,0.02813 -0.00312,0.01042 -0.00937,0.01458 -0.00625,0.0031 -0.014583,0.0031 -0.00937,0 -0.029167,-0.01042 -0.019792,-0.01146 -0.05,-0.02396 -0.029167,-0.0125 -0.06875,-0.02292 -0.038542,-0.01146 -0.088542,-0.01146 -0.035417,0 -0.061459,0.0073 -0.026042,0.0073 -0.042708,0.02083 -0.016667,0.01354 -0.025,0.03229 -0.00833,0.01771 -0.00833,0.03854 0,0.03229 0.019792,0.05417 0.019792,0.02187 0.052083,0.03854 0.032292,0.01667 0.072917,0.03125 0.041667,0.01458 0.083334,0.03229 0.042708,0.01667 0.083334,0.03958 0.041667,0.02292 0.073959,0.05625 0.032292,0.03333 0.052083,0.08021 0.019792,0.04583 0.019792,0.109375 z" />
    <path
       id="path861"
       style="font-style:normal;font-variant:normal;font-weight:bold;font-stretch:normal;font-size:2.13334px;font-family:Calibri;-inkscape-font-specification:'Calibri Bold';text-align:center;text-anchor:middle;stroke-width:0.04"
       d="m 4.57556,12.362559 q 0,0.01042 -0.00625,0.01875 -0.00625,0.0073 -0.021875,0.0125 -0.014583,0.0052 -0.039583,0.0073 -0.025,0.0031 -0.063542,0.0031 -0.038542,0 -0.063542,-0.0031 -0.025,-0.0021 -0.040625,-0.0073 -0.014583,-0.0052 -0.020833,-0.0125 -0.00625,-0.0083 -0.00625,-0.01875 v -0.927086 q 0,-0.01042 0.00625,-0.01771 0.00625,-0.0083 0.020833,-0.01354 0.015625,-0.0062 0.040625,-0.0094 0.025,-0.0031 0.063542,-0.0031 0.038542,0 0.063542,0.0031 0.025,0.0031 0.039583,0.0094 0.015625,0.0052 0.021875,0.01354 0.00625,0.0073 0.00625,0.01771 z m 0.019792,-1.243754 q 0,0.07917 -0.032292,0.109375 -0.032292,0.03021 -0.119792,0.03021 -0.088542,0 -0.1197921,-0.02917 -0.030208,-0.02917 -0.030208,-0.105209 0,-0.07917 0.03125,-0.109375 0.032292,-0.03125 0.1208337,-0.03125 0.0875,0 0.1187504,0.03021 0.03125,0.02917 0.03125,0.105209 z" />
    <path
       id="path863"
       style="font-style:normal;font-variant:normal;font-weight:bold;font-stretch:normal;font-size:2.13334px;font-family:Calibri;-inkscape-font-specification:'Calibri Bold';text-align:center;text-anchor:middle;stroke-width:0.04"
       d="m 6.3161904,12.362559 q 0,0.01042 -0.00625,0.01875 -0.00625,0.0073 -0.020833,0.0125 -0.014583,0.0052 -0.039583,0.0073 -0.025,0.0031 -0.063542,0.0031 -0.039583,0 -0.064583,-0.0031 -0.025,-0.0021 -0.040625,-0.0073 -0.014583,-0.0052 -0.020833,-0.0125 -0.00521,-0.0083 -0.00521,-0.01875 v -0.551043 q 0,-0.04688 -0.00938,-0.08542 -0.00833,-0.03854 -0.027083,-0.06563 -0.017708,-0.02812 -0.045834,-0.04271 -0.027083,-0.01563 -0.065625,-0.01563 -0.046875,0 -0.094792,0.03646 -0.047917,0.03646 -0.104167,0.106251 v 0.61771 q 0,0.01042 -0.00625,0.01875 -0.00625,0.0073 -0.021875,0.0125 -0.014583,0.0052 -0.039583,0.0073 -0.025,0.0031 -0.0625,0.0031 -0.038542,0 -0.063542,-0.0031 -0.025,-0.0021 -0.040625,-0.0073 -0.014583,-0.0052 -0.020833,-0.0125 -0.00625,-0.0083 -0.00625,-0.01875 v -0.551043 q 0,-0.04688 -0.00938,-0.08542 -0.00833,-0.03854 -0.026042,-0.06563 -0.017708,-0.02812 -0.045834,-0.04271 -0.028125,-0.01563 -0.065625,-0.01563 -0.047917,0 -0.095834,0.03646 -0.047917,0.03646 -0.1031253,0.106251 v 0.61771 q 0,0.01042 -0.00625,0.01875 -0.00625,0.0073 -0.021875,0.0125 -0.014583,0.0052 -0.039583,0.0073 -0.025,0.0031 -0.063542,0.0031 -0.038542,0 -0.063542,-0.0031 -0.025,-0.0021 -0.040625,-0.0073 -0.014583,-0.0052 -0.020833,-0.0125 -0.00625,-0.0083 -0.00625,-0.01875 v -0.92917 q 0,-0.01042 0.00521,-0.01771 0.00521,-0.0083 0.01875,-0.01354 0.013542,-0.0052 0.034375,-0.0073 0.021875,-0.0031 0.054167,-0.0031 0.033333,0 0.055208,0.0031 0.021875,0.0021 0.033333,0.0073 0.0125,0.0052 0.017708,0.01354 0.00521,0.0073 0.00521,0.01771 v 0.107292 q 0.077084,-0.08333 0.1531255,-0.125 0.077084,-0.04167 0.1604172,-0.04167 0.057292,0 0.1031253,0.0125 0.045833,0.01146 0.08125,0.03438 0.036459,0.02187 0.0625,0.05313 0.026042,0.03125 0.04375,0.06979 0.041667,-0.04479 0.08125,-0.07708 0.040625,-0.03229 0.079167,-0.05208 0.039583,-0.02083 0.078125,-0.03021 0.039583,-0.01042 0.080208,-0.01042 0.092709,0 0.1562505,0.03125 0.063542,0.03125 0.1020837,0.08542 0.039583,0.05312 0.05625,0.125001 0.016667,0.07188 0.016667,0.152083 z" />
    <path
       id="path865"
       style="font-style:normal;font-variant:normal;font-weight:bold;font-stretch:normal;font-size:2.13334px;font-family:Calibri;-inkscape-font-specification:'Calibri Bold';text-align:center;text-anchor:middle;stroke-width:0.04"
       d="m 7.4568188,12.362559 q 0,0.01042 -0.00521,0.01875 -0.00521,0.0073 -0.01875,0.0125 -0.0125,0.0052 -0.034375,0.0073 -0.020833,0.0031 -0.053125,0.0031 -0.034375,0 -0.05625,-0.0031 -0.020833,-0.0021 -0.033333,-0.0073 -0.0125,-0.0052 -0.017708,-0.0125 -0.00521,-0.0083 -0.00521,-0.01875 v -0.107292 q -0.077083,0.08333 -0.1572921,0.125 -0.079167,0.04167 -0.1645839,0.04167 -0.095834,0 -0.1614588,-0.03125 -0.064584,-0.03125 -0.1052086,-0.08542 -0.039583,-0.05417 -0.057292,-0.125 -0.016667,-0.07188 -0.016667,-0.178126 v -0.568752 q 0,-0.01042 0.00521,-0.01771 0.00625,-0.0083 0.020833,-0.01354 0.015625,-0.0052 0.040625,-0.0073 0.026042,-0.0031 0.063542,-0.0031 0.038542,0 0.063542,0.0031 0.025,0.0021 0.039583,0.0073 0.015625,0.0052 0.021875,0.01354 0.00625,0.0073 0.00625,0.01771 v 0.525002 q 0,0.07292 0.00938,0.111459 0.00937,0.03854 0.028125,0.06667 0.019792,0.02708 0.048959,0.04271 0.030208,0.01458 0.069792,0.01458 0.05,0 0.1000003,-0.03646 0.051042,-0.03646 0.1083337,-0.10625 v -0.617711 q 0,-0.01042 0.00521,-0.01771 0.00625,-0.0083 0.020833,-0.01354 0.015625,-0.0052 0.040625,-0.0073 0.025,-0.0031 0.063542,-0.0031 0.038542,0 0.063542,0.0031 0.025,0.0021 0.039583,0.0073 0.014583,0.0052 0.020833,0.01354 0.00625,0.0073 0.00625,0.01771 z" />
    <path
       id="path867"
       style="font-style:normal;font-variant:normal;font-weight:bold;font-stretch:normal;font-size:2.13334px;font-family:Calibri;-inkscape-font-specification:'Calibri Bold';text-align:center;text-anchor:middle;stroke-width:0.04"
       d="m 7.983904,12.362559 q 0,0.01042 -0.00625,0.01875 -0.00625,0.0073 -0.021875,0.0125 -0.014583,0.0052 -0.039583,0.0073 -0.025,0.0031 -0.063542,0.0031 -0.038542,0 -0.063542,-0.0031 -0.025,-0.0021 -0.040625,-0.0073 -0.014583,-0.0052 -0.020833,-0.0125 -0.00625,-0.0083 -0.00625,-0.01875 v -1.369796 q 0,-0.01042 0.00625,-0.01875 0.00625,-0.0083 0.020833,-0.01354 0.015625,-0.0062 0.040625,-0.0094 0.025,-0.0031 0.063542,-0.0031 0.038542,0 0.063542,0.0031 0.025,0.0031 0.039583,0.0094 0.015625,0.0052 0.021875,0.01354 0.00625,0.0083 0.00625,0.01875 z" />
    <path
       id="path869"
       style="font-style:normal;font-variant:normal;font-weight:bold;font-stretch:normal;font-size:2.13334px;font-family:Calibri;-inkscape-font-specification:'Calibri Bold';text-align:center;text-anchor:middle;stroke-width:0.04"
       d="m 9.0380738,12.365684 q 0,0.01458 -0.010417,0.02292 -0.010417,0.0083 -0.033333,0.01146 -0.021875,0.0042 -0.065625,0.0042 -0.046875,0 -0.06875,-0.0042 -0.020833,-0.0031 -0.030208,-0.01146 -0.00833,-0.0083 -0.00833,-0.02292 v -0.07396 q -0.057292,0.06146 -0.1312504,0.09583 -0.072917,0.03438 -0.1625005,0.03438 -0.073959,0 -0.1364588,-0.01979 -0.061458,-0.01875 -0.1072919,-0.05625 -0.044792,-0.03854 -0.069792,-0.09479 -0.025,-0.05625 -0.025,-0.13125 0,-0.08125 0.03125,-0.140626 0.032292,-0.06042 0.094792,-0.09896 0.063542,-0.03958 0.1572922,-0.05833 0.09375,-0.01875 0.217709,-0.01875 h 0.090625 v -0.05625 q 0,-0.04375 -0.00938,-0.07604 -0.00833,-0.03333 -0.029167,-0.05521 -0.019792,-0.02187 -0.054167,-0.03229 -0.033334,-0.01042 -0.083334,-0.01042 -0.065625,0 -0.1177087,0.01458 -0.051042,0.01458 -0.090625,0.03229 -0.039584,0.01771 -0.066667,0.03229 -0.026042,0.01458 -0.042708,0.01458 -0.011458,0 -0.020833,-0.0073 -0.00833,-0.0073 -0.014583,-0.02083 -0.00521,-0.01354 -0.00833,-0.03333 -0.00313,-0.01979 -0.00313,-0.04375 0,-0.03229 0.00521,-0.05104 0.00521,-0.01875 0.019792,-0.03333 0.014583,-0.01563 0.051042,-0.03333 0.036459,-0.01875 0.085417,-0.03438 0.048958,-0.01563 0.1062504,-0.025 0.058333,-0.01042 0.119792,-0.01042 0.1093753,0 0.1864589,0.02187 0.078125,0.02083 0.1281254,0.06562 0.05,0.04375 0.072917,0.113543 0.022917,0.06979 0.022917,0.165625 z M 8.7807814,11.967766 H 8.6807811 q -0.063542,0 -0.1083337,0.0094 -0.044792,0.0094 -0.072917,0.02813 -0.028125,0.01875 -0.041667,0.04583 -0.0125,0.02604 -0.0125,0.06042 0,0.05833 0.036458,0.09167 0.0375,0.03333 0.1031253,0.03333 0.055208,0 0.101042,-0.02812 0.046875,-0.02812 0.094792,-0.08229 z" />
    <path
       id="path871"
       style="font-style:normal;font-variant:normal;font-weight:bold;font-stretch:normal;font-size:2.13334px;font-family:Calibri;-inkscape-font-specification:'Calibri Bold';text-align:center;text-anchor:middle;stroke-width:0.04"
       d="m 10.187035,11.397973 q 0.04375,0 0.06042,0.01875 0.01771,0.01875 0.01771,0.05417 v 0.891669 q 0,0.01042 -0.0063,0.01875 -0.0062,0.0073 -0.02083,0.0125 -0.01458,0.0052 -0.04063,0.0073 -0.025,0.0031 -0.0625,0.0031 -0.03854,0 -0.06458,-0.0031 -0.025,-0.0021 -0.03958,-0.0073 -0.01458,-0.0052 -0.02083,-0.0125 -0.0062,-0.0083 -0.0062,-0.01875 V 11.610473 H 9.5859918 v 0.43646 q 0,0.07604 0.023958,0.114584 0.023958,0.0375 0.085417,0.0375 0.020833,0 0.0375,-0.0031 0.016667,-0.0042 0.029167,-0.0083 0.013542,-0.0052 0.021875,-0.0083 0.00937,-0.0042 0.016667,-0.0042 0.00625,0 0.011458,0.0042 0.00625,0.0031 0.00938,0.01458 0.00313,0.01042 0.00521,0.02917 0.00312,0.01875 0.00312,0.04792 0,0.04583 -0.00521,0.06979 -0.00521,0.02292 -0.014583,0.03438 -0.00938,0.01042 -0.028125,0.01875 -0.01875,0.0073 -0.04375,0.0125 -0.023958,0.0062 -0.053125,0.0094 -0.028125,0.0031 -0.057292,0.0031 -0.078125,0 -0.135417,-0.01979 -0.057292,-0.01979 -0.094792,-0.06042 -0.0375,-0.04167 -0.055208,-0.104167 -0.017708,-0.0625 -0.017708,-0.147918 V 11.610473 H 9.213074 q -0.019792,0 -0.030208,-0.02396 -0.010417,-0.025 -0.010417,-0.08229 0,-0.03021 0.00208,-0.05104 0.00313,-0.02083 0.00833,-0.03229 0.00521,-0.0125 0.0125,-0.01771 0.00833,-0.0052 0.01875,-0.0052 h 0.110417 V 11.19068 q 0,-0.01042 0.00521,-0.01875 0.00625,-0.0083 0.020833,-0.01354 0.015625,-0.0062 0.040625,-0.0083 0.026042,-0.0031 0.063542,-0.0031 0.038542,0 0.063542,0.0031 0.026042,0.0021 0.040625,0.0083 0.014583,0.0052 0.020833,0.01354 0.00625,0.0083 0.00625,0.01875 v 0.207293 z m 0.09896,-0.279168 q 0,0.07917 -0.03229,0.109375 -0.03229,0.03021 -0.119792,0.03021 -0.08854,0 -0.119792,-0.02917 -0.030208,-0.02917 -0.030208,-0.105209 0,-0.07917 0.03125,-0.109375 0.03229,-0.03125 0.120834,-0.03125 0.0875,0 0.11875,0.03021 0.03125,0.02917 0.03125,0.105209 z m -0.4135429,0.279168 z" />
    <path
       id="path873"
       style="font-style:normal;font-variant:normal;font-weight:bold;font-stretch:normal;font-size:2.13334px;font-family:Calibri;-inkscape-font-specification:'Calibri Bold';text-align:center;text-anchor:middle;stroke-width:0.04"
       d="m 11.469331,11.888599 q 0,0.11875 -0.03125,0.216667 -0.03125,0.09792 -0.09479,0.168751 -0.06354,0.07083 -0.159376,0.109375 -0.09583,0.03854 -0.223959,0.03854 -0.123958,0 -0.215625,-0.03438 -0.09167,-0.03437 -0.152084,-0.1 -0.06042,-0.06563 -0.08958,-0.161459 -0.02917,-0.09583 -0.02917,-0.218751 0,-0.11875 0.03125,-0.216667 0.03229,-0.09896 0.09583,-0.168751 0.06354,-0.07083 0.158334,-0.109375 0.09583,-0.03854 0.223959,-0.03854 0.125,0 0.216667,0.03437 0.09167,0.03333 0.151043,0.09896 0.06042,0.06562 0.08958,0.161459 0.02917,0.09583 0.02917,0.219792 z m -0.269793,0.01042 q 0,-0.06875 -0.01146,-0.126042 -0.01042,-0.05833 -0.03646,-0.101042 -0.02604,-0.04271 -0.06979,-0.06667 -0.04271,-0.02396 -0.108334,-0.02396 -0.05833,0 -0.102084,0.02187 -0.04375,0.02083 -0.07187,0.0625 -0.02813,0.04063 -0.04271,0.09896 -0.01354,0.05729 -0.01354,0.131251 0,0.06875 0.01146,0.127084 0.01146,0.05729 0.03646,0.1 0.02604,0.04271 0.06979,0.06667 0.04375,0.02292 0.108333,0.02292 0.05938,0 0.103126,-0.02083 0.04375,-0.02187 0.07188,-0.0625 0.02812,-0.04063 0.04167,-0.09792 0.01354,-0.05833 0.01354,-0.132292 z" />
    <path
       id="path875"
       style="font-style:normal;font-variant:normal;font-weight:bold;font-stretch:normal;font-size:2.13334px;font-family:Calibri;-inkscape-font-specification:'Calibri Bold';text-align:center;text-anchor:middle;stroke-width:0.04"
       d="m 12.563085,12.362559 q 0,0.01042 -0.0062,0.01875 -0.0062,0.0073 -0.02083,0.0125 -0.01458,0.0052 -0.04063,0.0073 -0.025,0.0031 -0.0625,0.0031 -0.03854,0 -0.06458,-0.0031 -0.025,-0.0021 -0.03958,-0.0073 -0.01458,-0.0052 -0.02083,-0.0125 -0.0062,-0.0083 -0.0062,-0.01875 v -0.53021 q 0,-0.06771 -0.01042,-0.10625 -0.0094,-0.03854 -0.02813,-0.06563 -0.01875,-0.02812 -0.04896,-0.04271 -0.02917,-0.01563 -0.06875,-0.01563 -0.05,0 -0.101042,0.03646 -0.05104,0.03646 -0.10625,0.106251 v 0.61771 q 0,0.01042 -0.0063,0.01875 -0.0062,0.0073 -0.02187,0.0125 -0.01458,0.0052 -0.03958,0.0073 -0.025,0.0031 -0.06354,0.0031 -0.03854,0 -0.06354,-0.0031 -0.025,-0.0021 -0.04063,-0.0073 -0.01458,-0.0052 -0.02083,-0.0125 -0.0062,-0.0083 -0.0062,-0.01875 v -0.92917 q 0,-0.01042 0.0052,-0.01771 0.0052,-0.0083 0.01875,-0.01354 0.01354,-0.0052 0.03438,-0.0073 0.02187,-0.0031 0.05417,-0.0031 0.03333,0 0.05521,0.0031 0.02187,0.0021 0.03333,0.0073 0.0125,0.0052 0.01771,0.01354 0.0052,0.0073 0.0052,0.01771 v 0.107292 q 0.07708,-0.08333 0.156251,-0.125 0.08021,-0.04167 0.166667,-0.04167 0.09479,0 0.159375,0.03125 0.06563,0.03125 0.105209,0.08542 0.04063,0.05312 0.05833,0.125001 0.01771,0.07188 0.01771,0.172917 z" />
  </g>
</svg>
