<?xml version="1.0" encoding="UTF-8" standalone="no"?>
<svg
   xmlns:dc="http://purl.org/dc/elements/1.1/"
   xmlns:cc="http://creativecommons.org/ns#"
   xmlns:rdf="http://www.w3.org/1999/02/22-rdf-syntax-ns#"
   xmlns:svg="http://www.w3.org/2000/svg"
   xmlns="http://www.w3.org/2000/svg"
   xmlns:sodipodi="http://sodipodi.sourceforge.net/DTD/sodipodi-0.dtd"
   xmlns:inkscape="http://www.inkscape.org/namespaces/inkscape"
   inkscape:version="1.0 (4035a4fb49, 2020-05-01)"
   sodipodi:docname="NBodySimulation3D.svg"
   id="svg12"
   version="1.1"
   width="16"
   viewBox="0 0 16 16"
   height="16">
  <metadata
     id="metadata18">
    <rdf:RDF>
      <cc:Work
         rdf:about="">
        <dc:format>image/svg+xml</dc:format>
        <dc:type
           rdf:resource="http://purl.org/dc/dcmitype/StillImage" />
      </cc:Work>
    </rdf:RDF>
  </metadata>
  <defs
     id="defs16" />
  <sodipodi:namedview
     inkscape:current-layer="svg12"
     inkscape:window-maximized="0"
     inkscape:window-y="0"
     inkscape:window-x="0"
     inkscape:cy="5.731087"
     inkscape:cx="9.1610315"
     inkscape:zoom="90.509668"
     showgrid="false"
     id="namedview14"
     inkscape:window-height="1233"
     inkscape:window-width="2487"
     inkscape:pageshadow="2"
     inkscape:pageopacity="0"
     guidetolerance="10"
     gridtolerance="10"
     objecttolerance="10"
     borderopacity="1"
     bordercolor="#666666"
     pagecolor="#ffffff" />
  <path
     style="stroke-width:0.8"
     id="path10"
     fill-opacity="0.99608"
     fill="#fc9c9c"
     d="M 8,3.2 A 4.8,4.8 0 0 0 3.2,8 4.8,4.8 0 0 0 8,12.8 4.8,4.8 0 0 0 12.8,8 4.8,4.8 0 0 0 8,3.2 Z M 8,4.8 A 3.2,3.2 0 0 1 11.2,8 3.2,3.2 0 0 1 8,11.2 3.2,3.2 0 0 1 4.8,8 3.2,3.2 0 0 1 8,4.8 Z" />
  <path
     style="stroke-width:0.187167"
     d="M 8.9365071,8.5238098 A 1.1269841,1.1190477 0 0 0 7.809524,9.6428565 1.1269841,1.1190477 0 0 0 8.9365071,10.761904 1.1269841,1.1190477 0 0 0 10.063492,9.6428565 1.1269841,1.1190477 0 0 0 8.9365071,8.5238098 Z m 0,0.3730155 A 0.75132279,0.74603181 0 0 1 9.6878308,9.6428565 0.75132279,0.74603181 0 0 1 8.9365071,10.388889 0.75132279,0.74603181 0 0 1 8.185185,9.6428565 0.75132279,0.74603181 0 0 1 8.9365071,8.8968253 Z"
     fill="#fc9c9c"
     fill-opacity="0.99608"
     id="path10-0" />
  <path
     d="M 5.0664062 5.3320312 A 7.953232 2.5079368 0 0 0 0.05078125 7.6621094 A 7.953232 2.5079368 0 0 0 8.0039062 10.169922 A 7.953232 2.5079368 0 0 0 15.957031 7.6621094 A 7.953232 2.5079368 0 0 0 11.203125 5.3671875 L 11.203125 6.328125 A 5.3021546 1.6719578 0 0 1 13.306641 7.6621094 A 5.3021546 1.6719578 0 0 1 8.0039062 9.3339844 A 5.3021546 1.6719578 0 0 1 2.703125 7.6621094 A 5.3021546 1.6719578 0 0 1 5.0664062 6.2695312 L 5.0664062 5.3320312 z "
     style="stroke-width:0.74435;fill:#fc9c9c;fill-opacity:0.99607998"
     id="path10-0-3" />
</svg>
